<svg xmlns="http://www.w3.org/2000/svg" fill="none" viewBox="0 0 16 16">
  <rect width="16" height="16" fill="#E2E6EE" rx="8"/>
  <path fill="#79819A" d="M10.916 11.333c-3.555.005-6.253-2.725-6.25-6.249 0-.23.187-.417.417-.417h1.1c.207 0 .382.151.412.356.073.49.215.966.424 1.415l.042.092c.06.129.02.281-.096.364-.34.243-.47.732-.205 1.114.333.48.753.9 1.232 1.232.382.266.871.135 1.114-.205a.295.295 0 0 1 .364-.096l.092.042c.45.208.926.35 1.415.424.205.03.356.205.356.412v1.1c0 .23-.187.416-.417.416Z"/>
</svg>
